HIERARCHY
ROOT Hips
{
	OFFSET 0.00000 0.00000 0.00000
	CHANNELS 6 Xposition Yposition Zposition Zrotation Yrotation Xrotation 
	JOINT LHipJoint
	{
		OFFSET 0 0 0
		CHANNELS 3 Zrotation Yrotation Xrotation
		JOINT LeftUpLeg
		{
			OFFSET 1.28366 -1.58472 0.87544
			CHANNELS 3 Zrotation Yrotation Xrotation
			JOINT LeftLeg
			{
				OFFSET 2.18587 -6.00562 0.00000
				CHANNELS 3 Zrotation Yrotation Xrotation
				JOINT LeftFoot
				{
					OFFSET 2.39085 -6.56880 0.00000
					CHANNELS 3 Zrotation Yrotation Xrotation
					JOINT LeftToeBase
					{
						OFFSET 0.12003 -0.32979 2.03101
						CHANNELS 3 Zrotation Yrotation Xrotation
						End Site
						{
							OFFSET 0.00000 -0.00000 1.04074
						}
					}
				}
			}
		}
	}
	JOINT RHipJoint
	{
		OFFSET 0 0 0
		CHANNELS 3 Zrotation Yrotation Xrotation
		JOINT RightUpLeg
		{
			OFFSET -1.21795 -1.58472 0.87544
			CHANNELS 3 Zrotation Yrotation Xrotation
			JOINT RightLeg
			{
				OFFSET -2.22714 -6.11902 0.00000
				CHANNELS 3 Zrotation Yrotation Xrotation
				JOINT RightFoot
				{
					OFFSET -2.40306 -6.60235 0.00000
					CHANNELS 3 Zrotation Yrotation Xrotation
					JOINT RightToeBase
					{
						OFFSET -0.15519 -0.42640 1.91430
						CHANNELS 3 Zrotation Yrotation Xrotation
						End Site
						{
							OFFSET -0.00000 -0.00000 0.99082
						}
					}
				}
			}
		}
	}
	JOINT LowerBack
	{
		OFFSET 0 0 0
		CHANNELS 3 Zrotation Yrotation Xrotation
		JOINT Spine
		{
			OFFSET 0.01180 1.76430 -0.06387
			CHANNELS 3 Zrotation Yrotation Xrotation
			JOINT Spine1
			{
				OFFSET -0.00388 1.74651 0.09536
				CHANNELS 3 Zrotation Yrotation Xrotation
				JOINT Neck
				{
					OFFSET 0 0 0
					CHANNELS 3 Zrotation Yrotation Xrotation
					JOINT Neck1
					{
						OFFSET 0.04111 1.46174 0.14397
						CHANNELS 3 Zrotation Yrotation Xrotation
						JOINT Head
						{
							OFFSET 0.00502 1.44580 -0.31711
							CHANNELS 3 Zrotation Yrotation Xrotation
							End Site
							{
								OFFSET -0.00395 1.49251 -0.12327
							}
						}
					}
				}
				JOINT LeftShoulder
				{
					OFFSET 0 0 0
					CHANNELS 3 Zrotation Yrotation Xrotation
					JOINT LeftArm
					{
						OFFSET 2.70917 1.34870 -0.15417
						CHANNELS 3 Zrotation Yrotation Xrotation
						JOINT LeftForeArm
						{
							OFFSET 4.46610 -0.00000 -0.00000
							CHANNELS 3 Zrotation Yrotation Xrotation
							JOINT LeftHand
							{
								OFFSET 3.41414 -0.00000 0.00000
								CHANNELS 3 Zrotation Yrotation Xrotation
								JOINT LeftFingerBase
								{
									OFFSET 0 0 0
									CHANNELS 3 Zrotation Yrotation Xrotation
									JOINT LeftHandIndex1
									{
										OFFSET 0.32830 -0.00000 0.00000
										CHANNELS 3 Zrotation Yrotation Xrotation
										End Site
										{
											OFFSET 0.26468 -0.00000 0.00000
										}
									}
								}
								JOINT LThumb
								{
									OFFSET 0 0 0
									CHANNELS 3 Zrotation Yrotation Xrotation
									End Site
									{
										OFFSET 0.26872 -0.00000 0.26872
									}
								}
							}
						}
					}
				}
				JOINT RightShoulder
				{
					OFFSET 0 0 0
					CHANNELS 3 Zrotation Yrotation Xrotation
					JOINT RightArm
					{
						OFFSET -3.06316 1.13725 -0.10883
						CHANNELS 3 Zrotation Yrotation Xrotation
						JOINT RightForeArm
						{
							OFFSET -4.40431 -0.00000 0.00000
							CHANNELS 3 Zrotation Yrotation Xrotation
							JOINT RightHand
							{
								OFFSET -3.04688 -0.00000 0.00000
								CHANNELS 3 Zrotation Yrotation Xrotation
								JOINT RightFingerBase
								{
									OFFSET 0 0 0
									CHANNELS 3 Zrotation Yrotation Xrotation
									JOINT RightHandIndex1
									{
										OFFSET -0.50049 -0.00000 0.00000
										CHANNELS 3 Zrotation Yrotation Xrotation
										End Site
										{
											OFFSET -0.40351 -0.00000 0.00000
										}
									}
								}
								JOINT RThumb
								{
									OFFSET 0 0 0
									CHANNELS 3 Zrotation Yrotation Xrotation
									End Site
									{
										OFFSET -0.40967 -0.00000 0.40967
									}
								}
							}
						}
					}
				}
			}
		}
	}
}
MOTION
Frames: 6
Frame Time: .0083333
-2.5110 15.0422 14.5752 -180.4180 15.5981 -178.9550 0.0000 0.0000 0.0000 -19.5227 13.9190 -14.9670 4.0647 12.2460 36.6080 1.4682 -1.6128 -22.4476 0.0348 1.2040 3.3102 0.0000 0.0000 0.0000 22.6112 -28.8618 -89.4494 -32.2449 -15.9361 128.3244 -1.4692 -0.8761 22.6604 -1.8978 -8.6499 24.7062 -4.5593 1.1773 13.0548 -0.0800 0.7883 -3.8308 2.3080 0.7064 -11.6257 -9.8518 -12.3651 -10.3862 8.9934 -16.5463 13.9158 2.7060 -7.6943 7.5573 0.0000 -0.0000 0.0000 -8.7946 4.2209 47.4499 138.8085 -48.7602 -100.6695 -0.0000 0.0000 -12.5209 4.7581 6.0288 0.5009 -7.1250 0.0000 -0.0000 -18.1804 35.5059 4.4262 0.0000 -0.0000 0.0000 22.0286 9.1670 12.6665 -29.9967 40.8905 -11.4074 0.0000 -0.0000 -9.9350 -12.7093 4.2200 -0.9508 7.1250 -0.0000 -0.0000 10.4780 -25.6367 4.9923
-2.5019 15.0595 14.5662 -180.2620 15.4525 -178.5900 0.0000 0.0000 0.0000 -19.3560 14.1800 -15.5713 4.1113 12.3070 36.8268 1.4223 -1.9407 -22.0018 0.0309 1.1354 3.1215 0.0000 0.0000 0.0000 21.4169 -27.3466 -87.0019 -31.4517 -16.5081 125.4857 -1.2254 -0.5274 20.7669 -1.9291 -8.7167 24.9132 -4.4552 0.9884 12.7513 -0.0158 0.5756 -3.9747 2.3691 0.6041 -11.5888 -9.8961 -12.3492 -10.4795 8.7858 -16.4983 14.3059 2.6408 -7.6776 7.6816 0.0000 -0.0000 0.0000 -8.2759 3.9706 47.8175 139.8657 -48.1493 -101.4608 -0.0000 0.0000 -13.0850 2.9087 6.4953 0.3293 -7.1250 0.0000 -0.0000 -19.7724 35.8388 4.6830 0.0000 -0.0000 0.0000 22.0573 9.1274 12.5065 -28.8051 39.8469 -10.6356 0.0000 -0.0000 -10.0460 -10.1068 3.8978 -0.6942 7.1250 -0.0000 -0.0000 12.4479 -25.9851 5.8669
-2.4907 15.0769 14.5580 -180.1220 15.3086 -178.2250 0.0000 0.0000 0.0000 -19.1883 14.5109 -16.2458 4.1719 12.3857 37.1104 1.3704 -2.3239 -21.4943 0.0248 1.0168 2.7951 0.0000 0.0000 0.0000 20.3246 -25.8131 -84.5319 -30.5727 -17.0750 122.4436 -1.0087 -0.3691 18.8687 -1.9780 -8.8202 25.2344 -4.3663 0.8062 12.4504 0.0523 0.3696 -4.1077 2.4401 0.5059 -11.5418 -9.9645 -12.3302 -10.5688 8.6144 -16.4436 14.6350 2.5926 -7.6584 7.7904 0.0000 -0.0000 0.0000 -7.7718 3.6734 48.1611 140.8013 -47.5879 -102.1547 -0.0000 0.0000 -13.5886 1.2625 6.8840 0.1513 -7.1250 0.0000 -0.0000 -21.1849 36.1003 4.9125 0.0000 -0.0000 0.0000 22.0504 9.1493 12.1949 -27.5736 38.7207 -9.8558 0.0000 -0.0000 -9.9139 -7.8863 3.7170 -0.5145 7.1250 -0.0000 -0.0000 14.1180 -26.1725 6.6344
-2.4771 15.0935 14.5505 -180.0040 15.1599 -177.8650 0.0000 0.0000 0.0000 -19.0189 14.9018 -16.9916 4.2509 12.4871 37.4775 1.3125 -2.7764 -20.9228 0.0159 0.8152 2.2404 0.0000 0.0000 0.0000 19.3310 -24.3009 -82.0531 -29.6091 -17.6239 119.2130 -0.8218 -0.4429 16.9895 -2.0436 -8.9562 25.6584 -4.3000 0.6332 12.1516 0.1206 0.1720 -4.2215 2.5206 0.4125 -11.4753 -10.0487 -12.3164 -10.6736 8.4767 -16.3944 14.9046 2.5564 -7.6417 7.8877 0.0000 0.0000 0.0000 -7.2864 3.3303 48.4630 141.6232 -47.0783 -102.7590 -0.0000 0.0000 -14.0098 -0.1195 7.1399 -0.0149 -7.1250 0.0000 -0.0000 -22.3510 36.2467 5.1329 0.0000 0.0000 0.0000 22.0143 9.2064 11.7620 -26.3198 37.5228 -9.0818 0.0000 -0.0000 -9.3809 -6.1800 3.7633 -0.4072 7.1250 -0.0000 -0.0000 15.3745 -26.1261 7.2829
-2.4609 15.1084 14.5439 -179.9100 14.9994 -177.5170 0.0000 0.0000 0.0000 -18.8417 15.3528 -17.8098 4.3524 12.6151 37.9442 1.2478 -3.3203 -20.2803 0.0061 0.5043 1.3856 0.0000 0.0000 0.0000 18.4412 -22.8359 -79.5719 -28.5638 -18.1420 115.8097 -0.6622 -0.7350 15.1417 -2.0854 -9.0418 25.9262 -4.2615 0.4667 11.8616 0.1834 -0.0226 -4.3161 2.6087 0.3214 -11.3923 -10.1409 -12.3069 -10.7595 8.3920 -16.3550 15.0851 2.5395 -7.6290 7.9589 -0.0000 -0.0000 0.0000 -6.8175 2.9533 48.7238 142.3416 -46.6198 -103.2831 -0.0000 0.0000 -14.3587 -1.2238 7.2468 -0.1544 -7.1250 0.0000 -0.0000 -23.2534 36.2711 5.3554 -0.0000 -0.0000 0.0000 21.9708 9.2820 11.2322 -25.0571 36.2623 -8.3237 0.0000 -0.0000 -8.3370 -5.0337 4.1105 -0.3617 7.1250 -0.0000 -0.0000 16.1727 -25.7887 7.8240
-2.4417 15.1213 14.5382 -179.8340 14.8227 -177.1880 0.0000 0.0000 0.0000 -18.6438 15.8618 -18.6976 4.4806 12.7739 38.5278 1.1761 -3.9762 -19.5656 0.0002 0.0936 0.2573 0.0000 0.0000 0.0000 17.6488 -21.4297 -77.0791 -27.4401 -18.6174 112.2472 -0.5271 -1.2752 13.3331 -2.1087 -9.0889 26.0738 -4.2487 0.3036 11.5891 0.2383 -0.2186 -4.3878 2.7014 0.2300 -11.2937 -10.2344 -12.3025 -10.8362 8.3653 -16.3292 15.1822 2.5414 -7.6205 8.0078 -0.0000 -0.0000 0.0000 -6.3525 2.5593 48.9445 142.9811 -46.2011 -103.7463 -0.0000 0.0000 -14.6559 -2.0364 7.2465 -0.2570 -7.1250 0.0000 -0.0000 -23.8918 36.2148 5.5613 -0.0000 -0.0000 0.0000 21.9347 9.3634 10.6292 -23.8075 34.9601 -7.5960 0.0000 -0.0000 -6.7654 -4.4300 4.7034 -0.3640 7.1250 -0.0000 -0.0000 16.5359 -25.2167 8.2458
